<svg width="44" height="44" viewBox="0 0 44 44" fill="none" xmlns="http://www.w3.org/2000/svg">
<path d="M22 9.5V34.5M28.25 16.7917C28.25 13.9167 25.4521 11.5833 22 11.5833C18.5479 11.5833 15.75 13.9167 15.75 16.7917C15.75 19.6667 18.5479 22 22 22C25.4521 22 28.25 24.3333 28.25 27.2083C28.25 30.0833 25.4521 32.4167 22 32.4167C18.5479 32.4167 15.75 30.0833 15.75 27.2083" stroke="white" stroke-width="1.5" stroke-linecap="round"/>
<path d="M11.5834 3.95415C14.749 2.12269 18.3427 1.16102 22 1.16665C33.5063 1.16665 42.8334 10.4937 42.8334 22C42.8334 33.5062 33.5063 42.8333 22 42.8333C10.4938 42.8333 1.16669 33.5062 1.16669 22C1.16669 18.2062 2.18127 14.6458 3.95419 11.5833" stroke="white" stroke-width="1.5" stroke-linecap="round"/>
</svg>
